<?xml version="1.0" encoding="utf-8"?>
<!-- Generator: Adobe Illustrator 25.2.3, SVG Export Plug-In . SVG Version: 6.00 Build 0)  -->
<svg version="1.1" id="Layer_1" xmlns="http://www.w3.org/2000/svg" xmlns:xlink="http://www.w3.org/1999/xlink" x="0px" y="0px"
	 viewBox="0 0 2726 680.3" style="enable-background:new 0 0 2726 680.3;" xml:space="preserve">
<style type="text/css">
	.st0{fill:none;}
	.st1{fill:none;stroke:#000000;stroke-width:9.0001;stroke-miterlimit:10.0001;}
	.st2{fill:none;stroke:#000000;stroke-width:5;stroke-miterlimit:10.0001;}
	.st3{fill:none;stroke:#000000;stroke-width:5;stroke-miterlimit:10.0001;stroke-dasharray:40.0003,30.0002;}
	.st4{fill:#FFFFFF;}
</style>
<g>
	<circle class="st0" cx="369" cy="331.3" r="249.4"/>
	<g>
		<path d="M468.7,326.3c0-16,12.3-27.5,28.9-27.5c9.2,0,16.9,3.3,21.9,9.4l-7.9,7.3c-3.3-4-8.2-6.3-13.4-6.2c-10,0-17,7-17,17
			c0,10,7.1,17,17,17c5.2,0.1,10.1-2.3,13.4-6.3l7.9,7.3c-5,6.2-12.7,9.5-22,9.5C481,353.8,468.7,342.3,468.7,326.3z"/>
		<path d="M464.5,399.8c0-15.8,12.3-27.5,29.1-27.5s29.1,11.6,29.1,27.5s-12.4,27.5-29.1,27.5S464.5,415.6,464.5,399.8z
			 M510.2,399.8c0-10.1-7.2-17-16.7-17c-9.5,0-16.6,6.9-16.6,17c0,10.1,7.1,17,16.6,17C503.1,416.8,510.2,409.9,510.2,399.8
			L510.2,399.8z"/>
		<path d="M476.9,446.7h12.3v43.2h26.7v10h-39L476.9,446.7z"/>
		<path d="M464.5,546.8c0-15.8,12.3-27.5,29.1-27.5s29.1,11.6,29.1,27.5s-12.4,27.5-29.1,27.5S464.5,562.6,464.5,546.8z
			 M510.2,546.8c0-10.1-7.2-17-16.7-17c-9.5,0-16.6,6.9-16.6,17s7.1,17,16.6,17C503.1,563.8,510.2,556.9,510.2,546.8L510.2,546.8z"
			/>
		<path d="M505.8,646.9L495.6,632h-11.3v14.8h-12.3v-53.2h23c14.2,0,23.1,7.4,23.1,19.3c0,8-4,13.8-10.9,16.8l11.9,17.1L505.8,646.9
			z M494.3,603.7h-10v18.5h10c7.5,0,11.3-3.5,11.3-9.3S501.8,603.7,494.3,603.7z"/>
	</g>
	<g>
		<path d="M48.2,299.2h12.3v43.2h26.7v10h-39L48.2,299.2z"/>
		<path d="M90.1,325.8c0-15.8,12.3-27.5,29.1-27.5s29.1,11.6,29.1,27.5c0,15.9-12.4,27.5-29.1,27.5S90.1,341.6,90.1,325.8z
			 M135.9,325.8c0-10.1-7.2-17-16.7-17s-16.6,6.9-16.6,17c0,10.1,7.1,17,16.6,17C128.7,342.8,135.9,335.9,135.9,325.8z"/>
		<path d="M154.6,325.8c0-16,12.3-27.5,28.9-27.5c9.2,0,16.9,3.3,21.9,9.4l-7.9,7.3c-3.3-4-8.2-6.3-13.4-6.2c-10,0-17,7-17,17
			c0,10,7.1,17,17,17c5.2,0,10.1-2.3,13.4-6.3l7.9,7.3c-5,6.2-12.7,9.5-22,9.5C166.9,353.3,154.6,341.9,154.6,325.8z"/>
		<path d="M235.6,311.3l-17.1,41.1h-12.6l23.7-53.2h12.2l23.8,53.2h-12.9L235.6,311.3 M247.9,341l-4-9.7l-8.3-20"/>
		<path d="M271.4,299.2h12.3v43.2h26.7v10h-39L271.4,299.2z"/>
	</g>
	<circle class="st1" cx="369" cy="331.3" r="249.4"/>
	<line class="st2" x1="119.6" y1="327.3" x2="614" y2="327.3"/>
	<circle class="st3" cx="455.1" cy="134.4" r="94.8"/>
</g>
<g>
	<rect x="686.2" y="112.5" class="st0" width="1903" height="460.6"/>
	<g>
		<g>
			<path d="M1460.1,458c63.6,0,115.1-51.4,115.1-115.1s-51.4-115.1-115.1-115.1c-63.6,0-115.1,51.4-115.1,115.1
				S1396.4,458,1460.1,458"/>
			<path class="st4" d="M1498.3,280.4l21.4,44.1l7.3,72.3h-43.1l-0.3-36.3c-0.3-13.5-10.6-24.9-23.8-24.9s-23.6,11.4-23.6,24.9v36.3
				h-43.3l7.3-72.3l21.1-44.1l8.9,36.3l29.2-49.3l29.8,49.3L1498.3,280.4z"/>
		</g>
		<g>
			<path d="M847.3,363.3l19.8-75h32.5l19.8,75l18.4-75h27.3L935,397.1h-30.6l-21.1-77.2l-21.4,77.2h-30.6l-30.1-108.9h27.6
				L847.3,363.3z"/>
			<path d="M977.3,366.5c0-24.9,20.3-36.3,45.2-36.3c8.1,0,17.3,2.2,21.9,3.8v-7.6c0-11.1-9.5-17.9-21.4-17.9
				c-8.4,0-19,3.2-25.7,15.7l-17.1-16c8.7-15.4,26.5-22.7,43.1-22.7c27.1,0,46.3,13.3,46.3,41.2v70.4h-24.9v-8.4
				c-6.8,6-17.1,10.8-31.1,10.8C994.1,399.5,977.3,387.4,977.3,366.5z M1019,377.3c9.7,0,20-4.1,25.5-9.2v-12.5
				c-6.5-2.4-13.5-4.3-22.7-4.3c-11.6,0-19.2,4.6-19.2,13.5C1002.5,371.7,1007.9,377.3,1019,377.3z"/>
			<path d="M1092.9,366.5c0-24.9,20.3-36.3,45.2-36.3c8.1,0,17.3,2.2,21.9,3.8v-7.6c0-11.1-9.5-17.9-21.4-17.9
				c-8.4,0-19,3.2-25.7,15.7l-17.1-16c8.7-15.4,26.5-22.7,43.1-22.7c27.1,0,46.3,13.3,46.3,41.2v70.4h-24.9v-8.4
				c-6.8,6-17.1,10.8-31.1,10.8C1109.7,399.5,1092.9,387.4,1092.9,366.5z M1134.6,377.3c9.7,0,20-4.1,25.5-9.2v-12.5
				c-6.5-2.4-13.5-4.3-22.7-4.3c-11.6,0-19.2,4.6-19.2,13.5C1118.1,371.7,1123.5,377.3,1134.6,377.3z"/>
			<path d="M1230.2,401.2c4.6,8.4,13.8,19,30.1,19c16.5,0,29-9.7,29-30.3v-5.7c-6.5,6-15.7,10.6-29,10.6c-30.6,0-52-23-52-54.4
				s21.7-54.7,52-54.7c13.8,0,22.5,4.3,29.5,11.6v-8.9h24.9v99.9c0,32.8-21.4,54.4-53.6,54.4c-27.9,0-43.3-16.5-48.7-24.1
				L1230.2,401.2z M1261.9,371.7c16.8,0,27.9-13,27.9-31.4s-11.1-31.4-27.9-31.4c-17.1,0-27.6,13-27.6,31.4
				C1234,358.4,1244.8,371.7,1261.9,371.7z"/>
		</g>
		<g>
			<path d="M1664.2,241.7V265c0,0-3.2-0.3-5.7-0.3c-15.4,0-23,6.2-23,22.2v1.4h26.3V311h-26.3v86.1h-24.9V311h-16v-22.7h16v-5.4
				c0-27.6,15.4-41.2,43.6-41.2C1659.6,241.4,1664.2,241.7,1664.2,241.7z"/>
			<path d="M1724.6,376.8c14.6,0,22.7-11.4,22.7-27.3v-61.2h25.5v108.9h-25.2v-8.9c-6.8,7.6-16.5,11.4-28.2,11.4
				c-24.1,0-40.6-17.1-40.6-47.9v-63.4h25.5v65C1704,367.6,1711.4,376.8,1724.6,376.8z"/>
			<path d="M1809.4,311H1791v-22.7h18.4v-30.3h25.2v30.3h28.7V311h-28.7v62.3h27.3v24.1h-52.5V311z"/>
			<path d="M1929.3,376.8c14.6,0,22.7-11.4,22.7-27.3v-61.2h25.5v108.9h-24.9v-8.9c-6.8,7.6-16.5,11.4-28.2,11.4
				c-24.1,0-40.6-17.1-40.6-47.9v-63.4h25.5v65C1908.7,367.6,1916.1,376.8,1929.3,376.8z"/>
			<path d="M2008.1,397.1V288.3h60.4v24.1h-35.2v84.8L2008.1,397.1L2008.1,397.1z"/>
			<path d="M2112.1,360.3v14.4h54.4v22.5h-79.3v-69.3c0-26.5,19-42.2,41.2-42.2c23.3,0,41.2,16.8,41.2,39s-19,38.7-41.2,38.7
				C2121.8,363.5,2116.7,362.5,2112.1,360.3z M2145.1,324.8c0-8.4-6.8-16-16.8-16c-10,0-16.8,7.6-16.8,16s6.8,15.7,16.8,15.7
				C2138.4,340.5,2145.1,333.2,2145.1,324.8z"/>
			<path d="M2218.2,241.4v155.7h-25.2V241.4H2218.2z"/>
			<path d="M2333,288.3v108.9h-49.8c-24.1,0-39.5-13.8-39.5-34.7c0-20.8,16.5-34.7,39.5-34.7h24.9v-17.3h-54.7v-22.2H2333z
				 M2308.1,349.7H2283c-9.7,0-16.2,4.1-16.2,13s6.5,13,16.2,13h25.2V349.7z"/>
			<path d="M2421,399.5c-15.4,0-24.1-5.4-30.9-12.2v9.7h-24.9V241.4h25.2v54.7c6.2-5.4,16.2-10.6,30.3-10.6
				c31.4,0,53.1,24.4,53.1,57.1C2474.1,375.5,2452.5,399.5,2421,399.5z M2419.2,377.3c19.2,0,29-16.5,29-34.7s-9.7-34.7-29-34.7
				c-19.5,0-29,16.5-29,34.7S2399.7,377.3,2419.2,377.3z"/>
		</g>
	</g>
</g>
</svg>
