<svg xmlns="http://www.w3.org/2000/svg" width="240mm" height="240mm" viewBox="0 0 680.31 680.31">
  <defs>
    <style>
      .a, .b, .c, .d {
        fill: none;
      }

      .b, .c, .d {
        stroke: #000;
        stroke-miterlimit: 10;
      }

      .b {
        stroke-width: 9px;
      }

      .c, .d {
        stroke-width: 5px;
      }

      .d {
        stroke-dasharray: 40 30;
      }
    </style>
  </defs>
  <title>localcolor_logo</title>
  <g>
    <circle class="a" cx="368.99" cy="331.29" r="249.43"/>
    <g>
      <path d="M468.67,326.28c0-16,12.31-27.51,28.88-27.51,9.2,0,16.88,3.34,21.89,9.42l-7.9,7.3a17.1,17.1,0,0,0-13.38-6.23c-10,0-17,7-17,17s7.07,17,17,17a17,17,0,0,0,13.38-6.3l7.9,7.29c-5,6.16-12.69,9.5-22,9.5C481,353.79,468.67,342.32,468.67,326.28Z"/>
      <path d="M464.45,399.77c0-15.81,12.32-27.51,29.11-27.51s29.11,11.63,29.11,27.51-12.38,27.52-29.11,27.52S464.45,415.58,464.45,399.77Zm45.76,0c0-10.11-7.15-17-16.65-17s-16.64,6.91-16.64,17,7.14,17,16.64,17S510.21,409.88,510.21,399.77Z"/>
      <path d="M476.92,446.66h12.31v43.17h26.68v10h-39Z"/>
      <path d="M464.45,546.76c0-15.81,12.32-27.52,29.11-27.52s29.11,11.63,29.11,27.52-12.38,27.51-29.11,27.51S464.45,562.57,464.45,546.76Zm45.76,0c0-10.11-7.15-17-16.65-17s-16.64,6.92-16.64,17,7.14,17,16.64,17S510.21,556.87,510.21,546.76Z"/>
      <path d="M505.84,646.85,495.58,632H484.25v14.82H471.94v-53.2h23c14.21,0,23.1,7.37,23.1,19.3,0,8-4,13.83-10.94,16.8l11.93,17.1Zm-11.55-43.17h-10v18.54h10c7.52,0,11.32-3.49,11.32-9.27S501.81,603.68,494.29,603.68Z"/>
    </g>
    <g>
      <path d="M48.15,299.22H60.47v43.17H87.14v10h-39Z"/>
      <path d="M90.1,325.82c0-15.81,12.32-27.51,29.11-27.51s29.11,11.62,29.11,27.51-12.39,27.51-29.11,27.51S90.1,341.63,90.1,325.82Zm45.76,0c0-10.11-7.15-17-16.65-17s-16.64,6.91-16.64,17,7.14,17,16.64,17S135.86,335.93,135.86,325.82Z"/>
      <path d="M154.55,325.82c0-16,12.31-27.51,28.88-27.51,9.2,0,16.88,3.34,21.89,9.42l-7.9,7.3A17.1,17.1,0,0,0,184,308.8c-9.95,0-17,7-17,17s7.07,17,17,17a17,17,0,0,0,13.38-6.31l7.9,7.29c-5,6.16-12.69,9.5-22,9.5C166.86,353.33,154.55,341.86,154.55,325.82Z"/>
      <path d="M235.57,311.3l-17.1,41.12H205.85l23.71-53.2h12.16l23.79,53.2H252.59l-17-41.12M247.88,341l-4-9.73-8.28-20"/>
      <path d="M271.36,299.22h12.32v43.17h26.67v10h-39Z"/>
    </g>
    <circle class="b" cx="368.99" cy="331.29" r="249.43"/>
    <line class="c" x1="119.56" y1="327.28" x2="614" y2="327.28"/>
    <circle class="d" cx="455.06" cy="134.36" r="94.79"/>
  </g>
</svg>
