<?xml version="1.0" encoding="utf-8"?>
<!-- Generator: Adobe Illustrator 26.2.1, SVG Export Plug-In . SVG Version: 6.00 Build 0)  -->
<svg version="1.1" id="Layer_2_copy" xmlns="http://www.w3.org/2000/svg" xmlns:xlink="http://www.w3.org/1999/xlink" x="0px"
	 y="0px" viewBox="0 0 702.8 170.1" style="enable-background:new 0 0 702.8 170.1;" xml:space="preserve">
<style type="text/css">
	.st0{fill:none;}
	.st1{fill:#FFFFFF;}
</style>
<rect class="st0" width="702.8" height="170.1"/>
<g>
	<g>
		<path d="M285.8,127.6c23.5,0,42.5-19,42.5-42.5s-19-42.5-42.5-42.5c-23.5,0-42.5,19-42.5,42.5S262.3,127.6,285.8,127.6"/>
		<path class="st1" d="M299.9,62l7.9,16.3l2.7,26.7h-15.9l-0.1-13.4c-0.1-5-3.9-9.2-8.8-9.2s-8.7,4.2-8.7,9.2v13.4h-16l2.7-26.7
			l7.8-16.3l3.3,13.4l10.8-18.2l11,18.2L299.9,62z"/>
	</g>
	<g>
		<path d="M59.5,92.6l7.3-27.7h12l7.3,27.7l6.8-27.7H103l-11.1,40.2H80.6l-7.8-28.5l-7.9,28.5H53.6L42.5,64.9h10.2L59.5,92.6z"/>
		<path d="M107.5,93.8c0-9.2,7.5-13.4,16.7-13.4c3,0,6.4,0.8,8.1,1.4V79c0-4.1-3.5-6.6-7.9-6.6c-3.1,0-7,1.2-9.5,5.8l-6.3-5.9
			c3.2-5.7,9.8-8.4,15.9-8.4c10,0,17.1,4.9,17.1,15.2v26h-9.2V102c-2.5,2.2-6.3,4-11.5,4C113.7,106,107.5,101.5,107.5,93.8z
			 M122.9,97.8c3.6,0,7.4-1.5,9.4-3.4v-4.6c-2.4-0.9-5-1.6-8.4-1.6c-4.3,0-7.1,1.7-7.1,5C116.8,95.7,118.8,97.8,122.9,97.8z"/>
		<path d="M150.2,93.8c0-9.2,7.5-13.4,16.7-13.4c3,0,6.4,0.8,8.1,1.4V79c0-4.1-3.5-6.6-7.9-6.6c-3.1,0-7,1.2-9.5,5.8l-6.3-5.9
			c3.2-5.7,9.8-8.4,15.9-8.4c10,0,17.1,4.9,17.1,15.2v26h-9.2V102c-2.5,2.2-6.3,4-11.5,4C156.4,106,150.2,101.5,150.2,93.8z
			 M165.6,97.8c3.6,0,7.4-1.5,9.4-3.4v-4.6c-2.4-0.9-5-1.6-8.4-1.6c-4.3,0-7.1,1.7-7.1,5C159.5,95.7,161.5,97.8,165.6,97.8z"/>
		<path d="M200.9,106.6c1.7,3.1,5.1,7,11.1,7c6.1,0,10.7-3.6,10.7-11.2v-2.1c-2.4,2.2-5.8,3.9-10.7,3.9c-11.3,0-19.2-8.5-19.2-20.1
			c0-11.6,8-20.2,19.2-20.2c5.1,0,8.3,1.6,10.9,4.3v-3.3h9.2v36.9c0,12.1-7.9,20.1-19.8,20.1c-10.3,0-16-6.1-18-8.9L200.9,106.6z
			 M212.6,95.7c6.2,0,10.3-4.8,10.3-11.6c0-6.8-4.1-11.6-10.3-11.6c-6.3,0-10.2,4.8-10.2,11.6C202.3,90.8,206.3,95.7,212.6,95.7z"/>
	</g>
	<g>
		<path d="M361.2,47.7v8.6c0,0-1.2-0.1-2.1-0.1c-5.7,0-8.5,2.3-8.5,8.2v0.5h9.7v8.4h-9.7v31.8h-9.2V73.3h-5.9v-8.4h5.9v-2
			c0-10.2,5.7-15.2,16.1-15.2C359.5,47.6,361.2,47.7,361.2,47.7z"/>
		<path d="M383.5,97.6c5.4,0,8.4-4.2,8.4-10.1V64.9h9.4v40.2H392v-3.3c-2.5,2.8-6.1,4.2-10.4,4.2c-8.9,0-15-6.3-15-17.7V64.9h9.4v24
			C375.9,94.2,378.6,97.6,383.5,97.6z"/>
		<path d="M414.8,73.3H408v-8.4h6.8V53.7h9.3v11.2h10.6v8.4h-10.6v23h10.1v8.9h-19.4V73.3z"/>
		<path d="M459.1,97.6c5.4,0,8.4-4.2,8.4-10.1V64.9h9.4v40.2h-9.2v-3.3c-2.5,2.8-6.1,4.2-10.4,4.2c-8.9,0-15-6.3-15-17.7V64.9h9.4
			v24C451.5,94.2,454.2,97.6,459.1,97.6z"/>
		<path d="M488.2,105.1V64.9h22.3v8.9h-13v31.3L488.2,105.1L488.2,105.1z"/>
		<path d="M526.6,91.5v5.3h20.1v8.3h-29.3V79.5c0-9.8,7-15.6,15.2-15.6c8.6,0,15.2,6.2,15.2,14.4s-7,14.3-15.2,14.3
			C530.2,92.7,528.3,92.3,526.6,91.5z M538.8,78.4c0-3.1-2.5-5.9-6.2-5.9s-6.2,2.8-6.2,5.9c0,3.1,2.5,5.8,6.2,5.8
			S538.8,81.5,538.8,78.4z"/>
		<path d="M565.8,47.6v57.5h-9.3V47.6H565.8z"/>
		<path d="M608.2,64.9v40.2h-18.4c-8.9,0-14.6-5.1-14.6-12.8s6.1-12.8,14.6-12.8h9.2v-6.4h-20.2v-8.2H608.2z M599,87.6h-9.3
			c-3.6,0-6,1.5-6,4.8s2.4,4.8,6,4.8h9.3V87.6z"/>
		<path d="M640.7,106c-5.7,0-8.9-2-11.4-4.5v3.6h-9.2V47.6h9.3v20.2c2.3-2,6-3.9,11.2-3.9c11.6,0,19.6,9,19.6,21.1
			C660.3,97.1,652.3,106,640.7,106z M640,97.8c7.1,0,10.7-6.1,10.7-12.8s-3.6-12.8-10.7-12.8c-7.2,0-10.7,6.1-10.7,12.8
			S632.8,97.8,640,97.8z"/>
	</g>
</g>
</svg>
